<?xml version="1.0" standalone="no"?> 
<!DOCTYPE svg PUBLIC "-//W3C//DTD SVG 20010904//EN" "http://www.w3.org/TR/2001/REC-SVG-20010904/DTD/svg10.dtd"> 
<svg version="1.0" xmlns="http://www.w3.org/2000/svg" width="1800.000000pt" height="1161.000000pt" viewBox="0 0 1800.000000 1161.000000" 
preserveAspectRatio="xMidYMid meet"> <g transform="translate(0.000000,1161.000000) scale(0.100000,-0.100000)" 
fill="#e99b0b" stroke="none">
 <path d="M8923 9265 c-127 -7 -236 -16 -242 -19 -6 -4 -48 -11 -93 -15 -88 -9 -293 -50 -368 -74 -25 -8 -74 -22 -110 -32 -36 -9 -81 -23 
 -100 -30 -19 -8 -46 -17 -60 -21 -81 -21 -386 -155 -471 -206 -25 -16 -49 -28 -52 -28 -8 0 -206 -119 -251 -151 -272 -195 -335 -248 -536 
 -449 -210 -211 -348 -388 -510 -656 -69 -115 -208 -388 -233 -459 -8 -22 -32 -89 -55 -150 -60 -166 -82 -236 -101 -320 -6 -27 -26 -117 -45 
 -200 -19 -82 -37 -190 -40 -240 -4 -49 -11 -128 -16 -175 -12 -115 -12 -364 1 -480 6 -52 14 -142 19 -200 4 -58 18 -143 30 -190 12 -47 28 
 -116 35 -155 8 -38 18 -86 24 -105 6 -19 15 -55 22 -80 6 -25 24 -76 40 -114 16 -38 29 -75 29 -82 0 -21 102 -276 126 -315 13 -20 36 -65 52 
 -100 26 -57 53 -105 154 -270 136 -225 365 -498 589 -705 269 -247 511 -413 829 -565 207 -100 225 -108 245 -113 11 -3 65 -21 120 -41 96 -35 
 171 -58 245 -74 19 -4 44 -12 55 -18 25 -13 326 -68 460 -84 178 -21 557 -23 744 -5 91 10 198 24 236 32 39 7 110 21 159 29 48 9 97 20 108 26 
 10 6 54 19 96 30 91 24 217 64 287 91 63 25 337 149 350 158 10 7 57 33 195 108 36 19 87 51 114 71 28 19 73 51 102 71 248 167 571 473 732 692 
 23 31 46 60 52 63 6 4 37 46 68 93 32 48 72 107 89 132 16 25 49 81 73 125 23 44 48 87 55 95 7 8 27 47 45 85 17 39 45 97 62 130 17 33 34 71 39
  85 4 14 26 72 48 130 51 137 67 183 86 250 28 102 68 284 76 350 4 36 15 115 24 175 41 282 43 588 4 846 -11 74 -24 163 -29 199 -10 74 -50 258 
  -80 370 -18 68 -37 121 -106 295 -13 33 -24 65 -24 70 0 35 -249 493 -328 604 -82 115 -189 256 -213 281 -8 8 -29 33 -48 55 -195 232 -589 564 
  -821 689 -66 37 -139 78 -175 100 -23 15 -286 134 -364 166 -60 24 -163 58 -261 85 -36 9 -81 23 -101 31 -50 18 -286 64 -382 75 -43 5 -82 11 -87 
  14 -5 3 -76 10 -158 15 -82 5 -167 11 -188 14 -22 2 -143 -2 -271 -9z m448 -1382 l994 -6 93 -96 c52 -53 91 -102 90 -110 -3 -13 -29 -17 -162 -21 
  -132 -4 -161 -8 -169 -21 -6 -9 -7 -24 -4 -33 7 -18 35 -20 273 -16 164 2 176 -2 247 -81 52 -58 55 -64 30 -74 -10 -4 -259 -9 -553 -12 -294 -3 -545
   -10 -557 -14 -13 -5 -23 -15 -23 -23 0 -37 13 -38 582 -37 304 1 567 4 585 7 17 3 48 1 67 -6 51 -17 144 -124 124 -142 -2 -2 -230 -5 -507 -8 -456 
   -5 -505 -7 -514 -22 -8 -12 -7 -21 2 -32 12 -14 75 -16 573 -16 l559 0 72 -77 c40 -43 91 -96 114 -118 25 -24 43 -50 43 -63 l0 -22 -819 0 c-509 0 
   -829 -4 -845 -10 l-26 -10 0 -734 c0 -404 -3 -741 -6 -750 -3 -9 -13 -16 -21 -16 -8 0 -241 227 -519 504 l-504 505 -1 63 c0 35 0 138 1 229 1 151 -1 
   168 -19 190 l-19 24 -259 2 c-142 2 -263 3 -269 3 -13 0 -489 482 -756 765 -36 39 -102 108 -147 155 -81 85 -96 115 -63 123 27 7 1230 8 2313 0z m-692 
   -2090 c31 -26 59 -53 63 -59 12 -18 580 -585 718 -717 69 -65 137 -136 151 -157 l26 -39 6 -463 c4 -255 3 -611 -1 -793 -6 -300 -9 -330 -24 -333 -12 -2
    -141 119 -390 367 -205 203 -434 429 -508 501 l-135 130 1 789 c1 434 4 796 7 805 10 25 26 19 86 -31z"/> </g> </svg>